<?xml version="1.0" encoding="UTF-8"?>
<!DOCTYPE svg PUBLIC "-//W3C//DTD SVG 1.1//EN" "http://www.w3.org/Graphics/SVG/1.1/DTD/svg11.dtd">
<svg xmlns="http://www.w3.org/2000/svg" version="1.1" width="512px" height="512px" style="shape-rendering:geometricPrecision; text-rendering:geometricPrecision; image-rendering:optimizeQuality; fill-rule:evenodd; clip-rule:evenodd" xmlns:xlink="http://www.w3.org/1999/xlink">
<g><path style="opacity:0.999" fill="#537882" d="M 316.5,60.5 C 316.5,70.5 316.5,80.5 316.5,90.5C 261.5,90.5 206.5,90.5 151.5,90.5C 151.5,170.5 151.5,250.5 151.5,330.5C 206.5,330.5 261.5,330.5 316.5,330.5C 316.5,340.5 316.5,350.5 316.5,360.5C 296.5,360.5 276.5,360.5 256.5,360.5C 230.833,360.5 205.167,360.5 179.5,360.5C 167.829,360.667 156.162,360.5 144.5,360C 131.666,356.168 124.166,347.668 122,334.5C 121.5,298.168 121.333,261.835 121.5,225.5C 121.5,205.5 121.5,185.5 121.5,165.5C 121.5,140.5 121.5,115.5 121.5,90.5C 121.914,75.5049 129.247,65.6715 143.5,61C 201.166,60.5 258.832,60.3333 316.5,60.5 Z"/></g>
<g><path style="opacity:1" fill="#3e5959" d="M 316.5,60.5 C 374.168,60.3333 431.834,60.5 489.5,61C 500.682,64.3501 508.016,71.5167 511.5,82.5C 511.5,167.833 511.5,253.167 511.5,338.5C 508.016,349.483 500.682,356.65 489.5,360C 451.835,360.5 414.168,360.667 376.5,360.5C 356.5,360.5 336.5,360.5 316.5,360.5C 316.5,350.5 316.5,340.5 316.5,330.5C 371.5,330.5 426.5,330.5 481.5,330.5C 481.5,250.5 481.5,170.5 481.5,90.5C 426.5,90.5 371.5,90.5 316.5,90.5C 316.5,80.5 316.5,70.5 316.5,60.5 Z"/></g>
<g><path style="opacity:0.999" fill="#3d5858" d="M 89.5,90.5 C 89.5,115.5 89.5,140.5 89.5,165.5C 59.5,165.5 29.5,165.5 -0.5,165.5C -0.5,143.5 -0.5,121.5 -0.5,99.5C 1.31481,95.5212 4.31481,92.6878 8.5,91C 35.4979,90.5 62.4979,90.3334 89.5,90.5 Z"/></g>
<g><path style="opacity:1" fill="#283938" d="M 89.5,90.5 C 100.167,90.5 110.833,90.5 121.5,90.5C 121.5,115.5 121.5,140.5 121.5,165.5C 110.833,165.5 100.167,165.5 89.5,165.5C 89.5,140.5 89.5,115.5 89.5,90.5 Z"/></g>
<g><path style="opacity:1" fill="#19c0ef" d="M 316.5,90.5 C 316.5,170.5 316.5,250.5 316.5,330.5C 261.5,330.5 206.5,330.5 151.5,330.5C 151.5,250.5 151.5,170.5 151.5,90.5C 206.5,90.5 261.5,90.5 316.5,90.5 Z"/></g>
<g><path style="opacity:1" fill="#159be1" d="M 316.5,90.5 C 371.5,90.5 426.5,90.5 481.5,90.5C 481.5,170.5 481.5,250.5 481.5,330.5C 426.5,330.5 371.5,330.5 316.5,330.5C 316.5,250.5 316.5,170.5 316.5,90.5 Z"/></g>
<g><path style="opacity:1" fill="#547982" d="M -0.5,165.5 C 29.5,165.5 59.5,165.5 89.5,165.5C 89.5,185.5 89.5,205.5 89.5,225.5C 59.5,225.5 29.5,225.5 -0.5,225.5C -0.5,205.5 -0.5,185.5 -0.5,165.5 Z"/></g>
<g><path style="opacity:1" fill="#3e5958" d="M 89.5,165.5 C 100.167,165.5 110.833,165.5 121.5,165.5C 121.5,185.5 121.5,205.5 121.5,225.5C 110.833,225.5 100.167,225.5 89.5,225.5C 89.5,205.5 89.5,185.5 89.5,165.5 Z"/></g>
<g><path style="opacity:1" fill="#3e5959" d="M -0.5,225.5 C 29.5,225.5 59.5,225.5 89.5,225.5C 89.5,281.5 89.5,337.5 89.5,393.5C 75.0276,396.71 71.1943,405.043 78,418.5C 81.0993,421.812 84.9327,423.479 89.5,423.5C 89.5,432.5 89.5,441.5 89.5,450.5C 62.4979,450.667 35.4979,450.5 8.5,450C 4.31481,448.312 1.31481,445.479 -0.5,441.5C -0.5,369.5 -0.5,297.5 -0.5,225.5 Z"/></g>
<g><path style="opacity:1" fill="#293939" d="M 89.5,225.5 C 100.167,225.5 110.833,225.5 121.5,225.5C 121.333,261.835 121.5,298.168 122,334.5C 124.166,347.668 131.666,356.168 144.5,360C 156.162,360.5 167.829,360.667 179.5,360.5C 179.667,387.502 179.5,414.502 179,441.5C 177.5,445.667 174.667,448.5 170.5,450C 143.502,450.5 116.502,450.667 89.5,450.5C 89.5,441.5 89.5,432.5 89.5,423.5C 101.388,422.084 106.221,415.417 104,403.5C 101.476,396.821 96.6428,393.488 89.5,393.5C 89.5,337.5 89.5,281.5 89.5,225.5 Z"/></g>
<g><path style="opacity:1" fill="#3e5958" d="M 256.5,360.5 C 276.5,360.5 296.5,360.5 316.5,360.5C 316.5,380.5 316.5,400.5 316.5,420.5C 296.5,420.5 276.5,420.5 256.5,420.5C 256.5,400.5 256.5,380.5 256.5,360.5 Z"/></g>
<g><path style="opacity:1" fill="#283938" d="M 316.5,360.5 C 336.5,360.5 356.5,360.5 376.5,360.5C 376.5,380.5 376.5,400.5 376.5,420.5C 356.5,420.5 336.5,420.5 316.5,420.5C 316.5,400.5 316.5,380.5 316.5,360.5 Z"/></g>
<g><path style="opacity:1" fill="#5cc781" d="M 89.5,393.5 C 96.6428,393.488 101.476,396.821 104,403.5C 106.221,415.417 101.388,422.084 89.5,423.5C 89.5,413.5 89.5,403.5 89.5,393.5 Z"/></g>
<g><path style="opacity:1" fill="#7fe584" d="M 89.5,393.5 C 89.5,403.5 89.5,413.5 89.5,423.5C 84.9327,423.479 81.0993,421.812 78,418.5C 71.1943,405.043 75.0276,396.71 89.5,393.5 Z"/></g>
<g><path style="opacity:0.996" fill="#547883" d="M 256.5,420.5 C 276.5,420.5 296.5,420.5 316.5,420.5C 316.5,430.5 316.5,440.5 316.5,450.5C 284.498,450.667 252.498,450.5 220.5,450C 212.085,445.652 209.252,438.819 212,429.5C 213.5,425.333 216.333,422.5 220.5,421C 232.495,420.5 244.495,420.333 256.5,420.5 Z"/></g>
<g><path style="opacity:1" fill="#3e5959" d="M 316.5,420.5 C 336.5,420.5 356.5,420.5 376.5,420.5C 388.505,420.333 400.505,420.5 412.5,421C 420.915,425.348 423.748,432.181 421,441.5C 419.64,444.735 417.473,447.235 414.5,449C 381.92,450.486 349.254,450.986 316.5,450.5C 316.5,440.5 316.5,430.5 316.5,420.5 Z"/></g>
</svg>
