<?xml version="1.0" encoding="UTF-8"?>
<!DOCTYPE svg PUBLIC "-//W3C//DTD SVG 1.1//EN" "http://www.w3.org/Graphics/SVG/1.1/DTD/svg11.dtd">
<svg xmlns="http://www.w3.org/2000/svg" version="1.1" width="512px" height="512px" style="shape-rendering:geometricPrecision; text-rendering:geometricPrecision; image-rendering:optimizeQuality; fill-rule:evenodd; clip-rule:evenodd" xmlns:xlink="http://www.w3.org/1999/xlink">
<g><path style="opacity:0.988" fill="#777576" d="M 479.5,385.5 C 474.45,388.692 469.117,391.358 463.5,393.5C 462.833,393.5 462.5,393.167 462.5,392.5C 463.329,385.679 463.829,378.679 464,371.5C 464.667,308.5 464.667,245.5 464,182.5C 461.147,173.613 455.981,166.447 448.5,161C 364.5,112.667 280.5,64.3333 196.5,16C 194.19,15.5034 191.857,15.3367 189.5,15.5C 193.426,12.1931 197.76,9.35973 202.5,7C 206.594,6.23266 210.594,6.566 214.5,8C 296.5,55.3333 378.5,102.667 460.5,150C 471.304,156.106 477.804,165.273 480,177.5C 479.9,246.831 479.733,316.165 479.5,385.5 Z"/></g>
<g><path style="opacity:0.992" fill="#525050" d="M 189.5,15.5 C 191.857,15.3367 194.19,15.5034 196.5,16C 280.5,64.3333 364.5,112.667 448.5,161C 455.981,166.447 461.147,173.613 464,182.5C 464.667,245.5 464.667,308.5 464,371.5C 463.829,378.679 463.329,385.679 462.5,392.5C 368.996,338.58 275.33,284.914 181.5,231.5C 182.317,161.851 182.817,92.1843 183,22.5C 183.985,19.017 186.151,16.6836 189.5,15.5 Z"/></g>
<g><path style="opacity:1" fill="#fdfcfc" d="M 193.5,26.5 C 273.139,72.3216 352.806,118.155 432.5,164C 438.437,167.217 443.937,171.051 449,175.5C 450.861,177.888 452.194,180.554 453,183.5C 453.667,247.5 453.667,311.5 453,375.5C 366.667,325.5 280.333,275.5 194,225.5C 193.5,159.168 193.333,92.8342 193.5,26.5 Z"/></g>
<g><path style="opacity:1" fill="#4b5564" d="M 202.5,40.5 C 223.436,51.6363 244.103,63.3029 264.5,75.5C 265.833,79.8333 265.833,84.1667 264.5,88.5C 244.296,76.4671 223.963,64.6338 203.5,53C 202.536,48.9341 202.203,44.7675 202.5,40.5 Z"/></g>
<g><path style="opacity:1" fill="#ef5a5a" d="M 442.5,198.5 C 442.831,220.34 442.497,242.006 441.5,263.5C 362.201,217.889 282.868,172.222 203.5,126.5C 202.334,104.174 202.167,81.8408 203,59.5C 282.814,105.986 362.648,152.32 442.5,198.5 Z"/></g>
<g><path style="opacity:1" fill="#a9c83a" d="M 276.5,173.5 C 276.83,193.007 276.497,212.341 275.5,231.5C 251.528,217.512 227.528,203.512 203.5,189.5C 202.167,170.167 202.167,150.833 203.5,131.5C 227.85,145.528 252.184,159.528 276.5,173.5 Z"/></g>
<g><path style="opacity:1" fill="#fee44c" d="M 359.5,222.5 C 359.83,242.007 359.497,261.341 358.5,280.5C 334.528,266.512 310.528,252.512 286.5,238.5C 285.334,218.842 285.167,199.175 286,179.5C 310.445,193.971 334.945,208.304 359.5,222.5 Z"/></g>
<g><path style="opacity:1" fill="#e1ecba" d="M 276.5,173.5 C 277.828,193.004 277.828,212.671 276.5,232.5C 275.893,232.376 275.56,232.043 275.5,231.5C 276.497,212.341 276.83,193.007 276.5,173.5 Z"/></g>
<g><path style="opacity:1" fill="#f7b2b2" d="M 442.5,198.5 C 443.828,220.337 443.828,242.337 442.5,264.5C 441.893,264.376 441.56,264.043 441.5,263.5C 442.497,242.006 442.831,220.34 442.5,198.5 Z"/></g>
<g><path style="opacity:1" fill="#c6c6c6" d="M 202.5,195.5 C 227.505,209.666 252.172,224.333 276.5,239.5C 275.998,240.521 275.332,240.688 274.5,240C 250.833,226.167 227.167,212.333 203.5,198.5C 202.614,197.675 202.281,196.675 202.5,195.5 Z"/></g>
<g><path style="opacity:1" fill="#c6c6c6" d="M 202.5,202.5 C 227.055,216.696 251.555,231.029 276,245.5C 276.667,246.167 276.667,246.833 276,247.5C 251.963,233.3 227.796,219.3 203.5,205.5C 202.614,204.675 202.281,203.675 202.5,202.5 Z"/></g>
<g><path style="opacity:1" fill="#c6c6c6" d="M 202.5,209.5 C 215.309,216.07 227.643,223.403 239.5,231.5C 238.21,232.408 236.877,232.241 235.5,231C 224.833,224.667 214.167,218.333 203.5,212C 202.748,211.329 202.414,210.496 202.5,209.5 Z"/></g>
<g><path style="opacity:1" fill="#69c4ef" d="M 368.5,228.5 C 392.942,242.224 417.275,256.224 441.5,270.5C 442.666,290.158 442.833,309.825 442,329.5C 417.667,315.167 393.333,300.833 369,286.5C 368.5,267.17 368.333,247.836 368.5,228.5 Z"/></g>
<g><path style="opacity:0.998" fill="#e6e6e6" d="M 181.5,231.5 C 275.33,284.914 368.996,338.58 462.5,392.5C 462.5,393.167 462.833,393.5 463.5,393.5C 461.599,395.796 459.266,397.629 456.5,399C 407.167,427.667 357.833,456.333 308.5,485C 303.705,487.033 298.705,487.866 293.5,487.5C 286.939,486.387 280.939,483.887 275.5,480C 195.5,430.667 115.5,381.333 35.5,332C 33.4497,330.035 31.783,327.868 30.5,325.5C 30.7377,321.862 32.4044,319.029 35.5,317C 84.3585,288.741 133.025,260.241 181.5,231.5 Z"/></g>
<g><path style="opacity:1" fill="#fff9dc" d="M 359.5,222.5 C 360.828,242.004 360.828,261.671 359.5,281.5C 358.893,281.376 358.56,281.043 358.5,280.5C 359.497,261.341 359.83,242.007 359.5,222.5 Z"/></g>
<g><path style="opacity:1" fill="#919292" d="M 189.5,270.5 C 185.238,267.026 180.571,264.026 175.5,261.5C 174.893,261.624 174.56,261.957 174.5,262.5C 173.475,262.103 173.308,261.437 174,260.5C 178.751,257.541 183.584,254.707 188.5,252C 195.207,253.353 201.207,256.353 206.5,261C 201.79,264.699 196.79,268.032 191.5,271C 190.563,271.692 189.897,271.525 189.5,270.5 Z"/></g>
<g><path style="opacity:1" fill="#c6c6c6" d="M 285.5,243.5 C 310.505,257.666 335.172,272.333 359.5,287.5C 358.998,288.521 358.332,288.688 357.5,288C 333.833,274.167 310.167,260.333 286.5,246.5C 285.614,245.675 285.281,244.675 285.5,243.5 Z"/></g>
<g><path style="opacity:1" fill="#929292" d="M 173.5,280.5 C 171.83,280.751 170.33,281.418 169,282.5C 164.582,279.707 160.082,277.041 155.5,274.5C 154.893,274.624 154.56,274.957 154.5,275.5C 152.534,274.745 152.2,273.579 153.5,272C 158.602,269.032 163.769,266.199 169,263.5C 174.936,266.213 180.436,269.546 185.5,273.5C 182.007,276.651 178.007,278.984 173.5,280.5 Z"/></g>
<g><path style="opacity:1" fill="#636161" d="M 174.5,262.5 C 174.56,261.957 174.893,261.624 175.5,261.5C 180.571,264.026 185.238,267.026 189.5,270.5C 184.368,268.1 179.368,265.434 174.5,262.5 Z"/></g>
<g><path style="opacity:1" fill="#919191" d="M 212.5,281.5 C 207.628,279.957 202.962,277.957 198.5,275.5C 195.436,275.397 194.436,274.064 195.5,271.5C 200.666,268.752 205.666,265.752 210.5,262.5C 216.295,265.493 221.629,268.993 226.5,273C 222.306,276.598 217.639,279.431 212.5,281.5 Z"/></g>
<g><path style="opacity:1" fill="#c6c6c6" d="M 285.5,257.5 C 298.309,264.07 310.643,271.403 322.5,279.5C 321.21,280.408 319.877,280.241 318.5,279C 307.833,272.667 297.167,266.333 286.5,260C 285.748,259.329 285.414,258.496 285.5,257.5 Z"/></g>
<g><path style="opacity:1" fill="#929393" d="M 193.5,292.5 C 191.545,293.323 189.545,293.49 187.5,293C 182.938,290.22 178.272,287.72 173.5,285.5C 173.369,284.624 173.702,283.957 174.5,283.5C 178.297,281.533 181.964,279.366 185.5,277C 187.365,275.699 189.365,275.365 191.5,276C 196.536,278.512 201.202,281.512 205.5,285C 202.186,288.458 198.186,290.958 193.5,292.5 Z"/></g>
<g><path style="opacity:1" fill="#8e8f8f" d="M 229.5,274.5 C 234.715,276.441 239.715,278.941 244.5,282C 246.255,282.72 247.089,283.887 247,285.5C 241.913,288.917 236.579,291.917 231,294.5C 225.064,291.787 219.564,288.454 214.5,284.5C 219.738,281.391 224.738,278.058 229.5,274.5 Z"/></g>
<g><path style="opacity:1" fill="#919292" d="M 158.5,290.5 C 151.658,294.422 144.658,298.088 137.5,301.5C 133.809,302.762 130.309,304.429 127,306.5C 122.102,303.967 117.269,301.301 112.5,298.5C 111.893,298.624 111.56,298.957 111.5,299.5C 110.224,298.614 110.224,297.614 111.5,296.5C 123.601,289.367 135.768,282.367 148,275.5C 153.567,278.701 159.067,282.034 164.5,285.5C 162.838,287.652 160.838,289.318 158.5,290.5 Z"/></g>
<g><path style="opacity:1" fill="#c6c6c6" d="M 285.5,250.5 C 309.612,264.106 333.612,277.939 357.5,292C 359.007,292.837 359.507,294.004 359,295.5C 335.167,281.667 311.333,267.833 287.5,254C 286.177,253.184 285.511,252.017 285.5,250.5 Z"/></g>
<g><path style="opacity:1" fill="#656464" d="M 154.5,275.5 C 154.56,274.957 154.893,274.624 155.5,274.5C 160.082,277.041 164.582,279.707 169,282.5C 170.33,281.418 171.83,280.751 173.5,280.5C 172.481,282.101 170.981,283.101 169,283.5C 164.075,280.955 159.242,278.288 154.5,275.5 Z"/></g>
<g><path style="opacity:1" fill="#636161" d="M 198.5,275.5 C 202.962,277.957 207.628,279.957 212.5,281.5C 211.399,282.598 210.066,282.765 208.5,282C 204.931,280.058 201.598,277.892 198.5,275.5 Z"/></g>
<g><path style="opacity:1" fill="#929393" d="M 257.5,302.5 C 255.516,303.156 253.516,303.822 251.5,304.5C 246.378,302.105 241.378,299.438 236.5,296.5C 235.893,296.624 235.56,296.957 235.5,297.5C 234.957,297.44 234.624,297.107 234.5,296.5C 239.933,293.034 245.433,289.701 251,286.5C 256.936,289.213 262.436,292.546 267.5,296.5C 264.81,299.514 261.477,301.514 257.5,302.5 Z"/></g>
<g><path style="opacity:1" fill="#939494" d="M 183.5,299.5 C 182.833,299.5 182.167,299.5 181.5,299.5C 177.177,301.481 172.844,303.481 168.5,305.5C 163.378,303.105 158.378,300.438 153.5,297.5C 152.893,297.624 152.56,297.957 152.5,298.5C 151.227,297.923 151.227,297.257 152.5,296.5C 155.231,294.808 157.898,293.142 160.5,291.5C 163.14,290.18 165.807,288.847 168.5,287.5C 173.5,290.333 178.5,293.167 183.5,296C 184.684,297.145 184.684,298.312 183.5,299.5 Z"/></g>
<g><path style="opacity:1" fill="#8e8f8f" d="M 208.5,286.5 C 215.148,289.155 221.148,292.821 226.5,297.5C 221.083,300.959 215.583,304.292 210,307.5C 204.915,304.374 199.749,301.374 194.5,298.5C 193.167,297.5 193.167,296.5 194.5,295.5C 199.571,292.974 204.238,289.974 208.5,286.5 Z"/></g>
<g><path style="opacity:1" fill="#666565" d="M 173.5,285.5 C 178.272,287.72 182.938,290.22 187.5,293C 189.545,293.49 191.545,293.323 193.5,292.5C 192.594,293.965 191.261,294.965 189.5,295.5C 183.766,292.642 178.433,289.309 173.5,285.5 Z"/></g>
<g><path style="opacity:1" fill="#dfdfdf" d="M 158.5,290.5 C 158.842,291.338 159.508,291.672 160.5,291.5C 157.898,293.142 155.231,294.808 152.5,296.5C 151.227,297.257 151.227,297.923 152.5,298.5C 157.806,301.488 163.139,304.488 168.5,307.5C 173.4,305.56 177.733,302.893 181.5,299.5C 182.167,299.5 182.833,299.5 183.5,299.5C 183.842,300.338 184.508,300.672 185.5,300.5C 181.5,303.167 177.5,305.833 173.5,308.5C 172.226,309.189 172.226,310.023 173.5,311C 177.744,313.428 182.078,315.594 186.5,317.5C 187.314,319.273 188.648,319.773 190.5,319C 194.562,315.971 198.895,313.471 203.5,311.5C 203.842,312.338 204.508,312.672 205.5,312.5C 202.227,315.144 198.56,317.311 194.5,319C 192.689,320.041 192.355,321.207 193.5,322.5C 197.806,324.988 202.139,327.488 206.5,330C 209.817,330.977 212.484,330.144 214.5,327.5C 217.45,326.692 220.117,325.358 222.5,323.5C 223.209,324.404 224.209,324.737 225.5,324.5C 221.98,327.184 218.147,329.518 214,331.5C 214.211,334.58 216.044,336.247 219.5,336.5C 222.476,338.993 225.809,340.993 229.5,342.5C 231.692,342.243 233.359,341.243 234.5,339.5C 237.648,338.424 240.648,337.091 243.5,335.5C 243.842,336.338 244.508,336.672 245.5,336.5C 241.647,338.682 237.814,341.016 234,343.5C 234.128,346.031 235.628,347.365 238.5,347.5C 241.876,350.194 245.543,352.527 249.5,354.5C 251.784,354.025 253.784,353.025 255.5,351.5C 255.833,352.167 256.167,352.833 256.5,353.5C 255.34,354.265 254.34,355.265 253.5,356.5C 259.002,360.085 264.669,363.419 270.5,366.5C 272.36,365.74 274.027,364.74 275.5,363.5C 275.833,364.167 276.167,364.833 276.5,365.5C 275.722,366.156 275.056,366.989 274.5,368C 279.633,371.738 284.966,375.238 290.5,378.5C 293.861,376.489 297.194,374.489 300.5,372.5C 300.833,373.167 301.167,373.833 301.5,374.5C 294.036,379.403 286.369,384.07 278.5,388.5C 277.791,387.596 276.791,387.263 275.5,387.5C 279.183,385.659 282.516,383.326 285.5,380.5C 285.047,379.542 284.381,378.708 283.5,378C 278.936,375.26 274.269,372.76 269.5,370.5C 265.683,372.241 262.017,374.241 258.5,376.5C 257.791,375.596 256.791,375.263 255.5,375.5C 259.183,373.659 262.516,371.326 265.5,368.5C 240.394,353.441 215.061,338.608 189.5,324C 188.5,323.333 187.5,323.333 186.5,324C 182.139,326.512 177.806,329.012 173.5,331.5C 172.791,330.596 171.791,330.263 170.5,330.5C 170.5,330.167 170.5,329.833 170.5,329.5C 175.204,327.626 179.538,325.126 183.5,322C 183.241,320.739 182.574,319.739 181.5,319C 176.959,316.299 172.292,313.799 167.5,311.5C 162.806,314.179 158.139,316.845 153.5,319.5C 152.791,318.596 151.791,318.263 150.5,318.5C 150.5,318.167 150.5,317.833 150.5,317.5C 154.711,315.963 158.711,313.963 162.5,311.5C 163.833,310.5 163.833,309.5 162.5,308.5C 157.666,305.248 152.666,302.248 147.5,299.5C 144.78,300.86 142.114,302.193 139.5,303.5C 139.158,302.662 138.492,302.328 137.5,302.5C 137.5,302.167 137.5,301.833 137.5,301.5C 144.658,298.088 151.658,294.422 158.5,290.5 Z"/></g>
<g><path style="opacity:1" fill="#c6c6c6" d="M 368.5,291.5 C 393.055,305.696 417.555,320.029 442,334.5C 442.667,335.167 442.667,335.833 442,336.5C 417.752,322.626 393.585,308.626 369.5,294.5C 368.614,293.675 368.281,292.675 368.5,291.5 Z"/></g>
<g><path style="opacity:1" fill="#666565" d="M 235.5,297.5 C 235.56,296.957 235.893,296.624 236.5,296.5C 241.378,299.438 246.378,302.105 251.5,304.5C 253.516,303.822 255.516,303.156 257.5,302.5C 255.911,304.306 253.911,305.639 251.5,306.5C 246.139,303.488 240.806,300.488 235.5,297.5 Z"/></g>
<g><path style="opacity:1" fill="#919292" d="M 269.5,316.5 C 265.341,313.253 261.008,310.253 256.5,307.5C 261.222,304.127 266.222,301.127 271.5,298.5C 276.955,301.061 282.288,303.895 287.5,307C 288.711,307.893 288.711,308.726 287.5,309.5C 282.167,312.5 276.833,315.5 271.5,318.5C 270.478,318.145 269.811,317.478 269.5,316.5 Z"/></g>
<g><path style="opacity:1" fill="#919292" d="M 203.5,311.5 C 198.895,313.471 194.562,315.971 190.5,319C 188.648,319.773 187.314,319.273 186.5,317.5C 182.341,314.253 178.008,311.253 173.5,308.5C 177.5,305.833 181.5,303.167 185.5,300.5C 187.068,299.527 188.735,299.36 190.5,300C 195.874,302.681 200.874,305.848 205.5,309.5C 204.757,310.182 204.091,310.849 203.5,311.5 Z"/></g>
<g><path style="opacity:1" fill="#919292" d="M 225.5,315.5 C 222.177,313.03 218.677,310.696 215,308.5C 214.601,308.728 214.435,309.062 214.5,309.5C 213.227,308.923 213.227,308.257 214.5,307.5C 220.034,304.066 225.7,301.233 231.5,299C 236.167,301.667 240.833,304.333 245.5,307C 246.022,307.561 246.355,308.228 246.5,309C 241.207,313.647 235.207,316.647 228.5,318C 227.058,317.623 226.058,316.79 225.5,315.5 Z"/></g>
<g><path style="opacity:1" fill="#919292" d="M 150.5,317.5 C 149.417,317.539 148.417,317.873 147.5,318.5C 143.711,316.037 139.711,314.037 135.5,312.5C 133.355,312.262 131.688,311.262 130.5,309.5C 133.738,307.725 136.738,305.725 139.5,303.5C 142.114,302.193 144.78,300.86 147.5,299.5C 152.666,302.248 157.666,305.248 162.5,308.5C 163.833,309.5 163.833,310.5 162.5,311.5C 158.711,313.963 154.711,315.963 150.5,317.5 Z"/></g>
<g><path style="opacity:1" fill="#727171" d="M 111.5,299.5 C 111.56,298.957 111.893,298.624 112.5,298.5C 117.269,301.301 122.102,303.967 127,306.5C 130.309,304.429 133.809,302.762 137.5,301.5C 137.5,301.833 137.5,302.167 137.5,302.5C 133.85,304.472 130.184,306.472 126.5,308.5C 121.638,305.237 116.638,302.237 111.5,299.5 Z"/></g>
<g><path style="opacity:1" fill="#707070" d="M 152.5,298.5 C 152.56,297.957 152.893,297.624 153.5,297.5C 158.378,300.438 163.378,303.105 168.5,305.5C 172.844,303.481 177.177,301.481 181.5,299.5C 177.733,302.893 173.4,305.56 168.5,307.5C 163.139,304.488 157.806,301.488 152.5,298.5 Z"/></g>
<g><path style="opacity:1" fill="#636161" d="M 225.5,315.5 C 221.345,314.258 217.678,312.258 214.5,309.5C 214.435,309.062 214.601,308.728 215,308.5C 218.677,310.696 222.177,313.03 225.5,315.5 Z"/></g>
<g><path style="opacity:1" fill="#626060" d="M 256.5,307.5 C 261.008,310.253 265.341,313.253 269.5,316.5C 265.078,314.594 260.744,312.428 256.5,310C 255.226,309.023 255.226,308.189 256.5,307.5 Z"/></g>
<g><path style="opacity:1" fill="#626060" d="M 173.5,308.5 C 178.008,311.253 182.341,314.253 186.5,317.5C 182.078,315.594 177.744,313.428 173.5,311C 172.226,310.023 172.226,309.189 173.5,308.5 Z"/></g>
<g><path style="opacity:1" fill="#929393" d="M 297.5,326.5 C 295.634,327.014 293.8,327.68 292,328.5C 287.102,325.967 282.269,323.301 277.5,320.5C 276.893,320.624 276.56,320.957 276.5,321.5C 275.355,320.207 275.689,319.041 277.5,318C 282.416,315.293 287.249,312.459 292,309.5C 297.783,312.637 303.283,316.137 308.5,320C 305.466,323.185 301.8,325.352 297.5,326.5 Z"/></g>
<g><path style="opacity:1" fill="#929393" d="M 222.5,323.5 C 220.117,325.358 217.45,326.692 214.5,327.5C 212.634,328.014 210.8,328.68 209,329.5C 204.102,326.967 199.269,324.301 194.5,321.5C 193.893,321.624 193.56,321.957 193.5,322.5C 192.355,321.207 192.689,320.041 194.5,319C 198.56,317.311 202.227,315.144 205.5,312.5C 206.721,311.972 207.887,311.305 209,310.5C 214.783,313.637 220.283,317.137 225.5,321C 224.87,322.31 223.87,323.144 222.5,323.5 Z"/></g>
<g><path style="opacity:1" fill="#8f8f8f" d="M 249.5,310.5 C 255.229,313.026 260.896,315.859 266.5,319C 267.451,319.718 267.617,320.551 267,321.5C 261.813,324.76 256.479,327.76 251,330.5C 245.521,327.76 240.187,324.76 235,321.5C 234.333,320.833 234.333,320.167 235,319.5C 239.981,316.6 244.815,313.6 249.5,310.5 Z"/></g>
<g><path style="opacity:1" fill="#919292" d="M 170.5,329.5 C 169.504,329.414 168.671,329.748 168,330.5C 163.59,327.907 159.09,325.574 154.5,323.5C 151.116,322.756 150.782,321.423 153.5,319.5C 158.139,316.845 162.806,314.179 167.5,311.5C 172.292,313.799 176.959,316.299 181.5,319C 182.574,319.739 183.241,320.739 183.5,322C 179.538,325.126 175.204,327.626 170.5,329.5 Z"/></g>
<g><path style="opacity:1" fill="#656464" d="M 135.5,312.5 C 139.711,314.037 143.711,316.037 147.5,318.5C 148.417,317.873 149.417,317.539 150.5,317.5C 150.5,317.833 150.5,318.167 150.5,318.5C 148.932,319.473 147.265,319.64 145.5,319C 141.931,317.058 138.598,314.892 135.5,312.5 Z"/></g>
<g><path style="opacity:1" fill="#919292" d="M 269.5,341.5 C 270.738,341.19 270.738,340.69 269.5,340C 264.603,337.392 259.937,334.559 255.5,331.5C 260.374,328.141 265.541,325.141 271,322.5C 276.936,325.213 282.436,328.546 287.5,332.5C 282.5,335.667 277.5,338.833 272.5,342C 271.251,342.74 270.251,342.573 269.5,341.5 Z"/></g>
<g><path style="opacity:1" fill="#919191" d="M 317.5,338.5 C 315.742,338.877 314.075,339.544 312.5,340.5C 309.423,338.295 306.09,336.628 302.5,335.5C 299.044,335.247 297.211,333.58 297,330.5C 302.085,327.374 307.251,324.374 312.5,321.5C 318.437,324.287 323.77,327.787 328.5,332C 325.466,335.185 321.8,337.352 317.5,338.5 Z"/></g>
<g><path style="opacity:1" fill="#929393" d="M 265.5,368.5 C 259.814,371.094 254.314,374.094 249,377.5C 243.686,374.094 238.186,371.094 232.5,368.5C 229.669,367.921 227.336,366.588 225.5,364.5C 219.666,360.079 213.332,356.412 206.5,353.5C 198.355,347.709 189.688,342.709 180.5,338.5C 177.071,337.619 174.071,335.952 171.5,333.5C 171.855,332.478 172.522,331.811 173.5,331.5C 177.806,329.012 182.139,326.512 186.5,324C 187.5,323.333 188.5,323.333 189.5,324C 215.061,338.608 240.394,353.441 265.5,368.5 Z"/></g>
<g><path style="opacity:1" fill="#919191" d="M 243.5,335.5 C 240.648,337.091 237.648,338.424 234.5,339.5C 232.742,339.877 231.075,340.544 229.5,341.5C 226.423,339.295 223.09,337.628 219.5,336.5C 216.044,336.247 214.211,334.58 214,331.5C 218.147,329.518 221.98,327.184 225.5,324.5C 226.807,323.847 228.14,323.18 229.5,322.5C 235.437,325.287 240.77,328.787 245.5,333C 244.944,334.011 244.278,334.844 243.5,335.5 Z"/></g>
<g><path style="opacity:1" fill="#c6c6c6" d="M 368.5,305.5 C 381.337,312.081 393.67,319.415 405.5,327.5C 404.21,328.408 402.877,328.241 401.5,327C 390.833,320.667 380.167,314.333 369.5,308C 368.748,307.329 368.414,306.496 368.5,305.5 Z"/></g>
<g><path style="opacity:0.971" fill="#b0afb0" d="M 30.5,325.5 C 31.783,327.868 33.4497,330.035 35.5,332C 115.5,381.333 195.5,430.667 275.5,480C 280.939,483.887 286.939,486.387 293.5,487.5C 293.5,493.167 293.5,498.833 293.5,504.5C 290.432,504.453 287.432,503.953 284.5,503C 201.167,451.667 117.833,400.333 34.5,349C 32.5125,347.681 31.3459,345.848 31,343.5C 30.5005,337.509 30.3338,331.509 30.5,325.5 Z"/></g>
<g><path style="opacity:1" fill="#656464" d="M 154.5,323.5 C 159.09,325.574 163.59,327.907 168,330.5C 168.671,329.748 169.504,329.414 170.5,329.5C 170.5,329.833 170.5,330.167 170.5,330.5C 169.262,331.412 167.928,331.579 166.5,331C 162.061,329.032 158.061,326.532 154.5,323.5 Z"/></g>
<g><path style="opacity:1" fill="#686767" d="M 276.5,321.5 C 276.56,320.957 276.893,320.624 277.5,320.5C 282.269,323.301 287.102,325.967 292,328.5C 293.8,327.68 295.634,327.014 297.5,326.5C 295.484,329.144 292.817,329.977 289.5,329C 285.139,326.488 280.806,323.988 276.5,321.5 Z"/></g>
<g><path style="opacity:1" fill="#676666" d="M 193.5,322.5 C 193.56,321.957 193.893,321.624 194.5,321.5C 199.269,324.301 204.102,326.967 209,329.5C 210.8,328.68 212.634,328.014 214.5,327.5C 212.484,330.144 209.817,330.977 206.5,330C 202.139,327.488 197.806,324.988 193.5,322.5 Z"/></g>
<g><path style="opacity:1" fill="#c5c5c5" d="M 368.5,298.5 C 392.612,312.106 416.612,325.939 440.5,340C 442.007,340.837 442.507,342.004 442,343.5C 418.167,329.667 394.333,315.833 370.5,302C 369.177,301.184 368.511,300.017 368.5,298.5 Z"/></g>
<g><path style="opacity:1" fill="#919292" d="M 362.5,359.5 C 359.368,360.567 356.368,361.9 353.5,363.5C 347.483,360.492 341.483,357.492 335.5,354.5C 332.669,353.921 330.336,352.588 328.5,350.5C 325.024,347.377 321.024,345.043 316.5,343.5C 321.859,338.989 327.859,335.822 334.5,334C 345.337,340.586 356.337,346.919 367.5,353C 369.007,353.837 369.507,355.004 369,356.5C 367.007,357.914 364.84,358.914 362.5,359.5 Z"/></g>
<g><path style="opacity:1" fill="#919191" d="M 255.5,351.5 C 253.784,353.025 251.784,354.025 249.5,354.5C 246.684,351.052 243.017,348.718 238.5,347.5C 235.628,347.365 234.128,346.031 234,343.5C 237.814,341.016 241.647,338.682 245.5,336.5C 247.305,335.091 249.305,334.591 251.5,335C 256.333,337.833 261.167,340.667 266,343.5C 266.617,344.449 266.451,345.282 265.5,346C 262.277,348.062 258.943,349.896 255.5,351.5 Z"/></g>
<g><path style="opacity:1" fill="#626060" d="M 255.5,331.5 C 259.937,334.559 264.603,337.392 269.5,340C 270.738,340.69 270.738,341.19 269.5,341.5C 264.362,338.763 259.362,335.763 254.5,332.5C 254.624,331.893 254.957,331.56 255.5,331.5 Z"/></g>
<g><path style="opacity:1" fill="#919292" d="M 298.5,349.5 C 296.072,350.212 293.739,351.212 291.5,352.5C 286.8,350.108 282.133,347.775 277.5,345.5C 275.535,345.052 275.202,344.052 276.5,342.5C 281.378,339.562 286.378,336.895 291.5,334.5C 297.32,336.907 302.653,340.074 307.5,344C 305.141,346.848 302.141,348.681 298.5,349.5 Z"/></g>
<g><path style="opacity:1" fill="#676666" d="M 302.5,335.5 C 306.09,336.628 309.423,338.295 312.5,340.5C 314.075,339.544 315.742,338.877 317.5,338.5C 316.359,340.243 314.692,341.243 312.5,341.5C 308.809,339.993 305.476,337.993 302.5,335.5 Z"/></g>
<g><path style="opacity:1" fill="#676565" d="M 219.5,336.5 C 223.09,337.628 226.423,339.295 229.5,341.5C 231.075,340.544 232.742,339.877 234.5,339.5C 233.359,341.243 231.692,342.243 229.5,342.5C 225.809,340.993 222.476,338.993 219.5,336.5 Z"/></g>
<g><path style="opacity:1" fill="#626060" d="M 180.5,338.5 C 189.688,342.709 198.355,347.709 206.5,353.5C 197.312,349.291 188.645,344.291 180.5,338.5 Z"/></g>
<g><path style="opacity:1" fill="#626060" d="M 316.5,343.5 C 321.024,345.043 325.024,347.377 328.5,350.5C 323.976,348.957 319.976,346.623 316.5,343.5 Z"/></g>
<g><path style="opacity:1" fill="#8f8f8f" d="M 275.5,363.5 C 274.027,364.74 272.36,365.74 270.5,366.5C 264.669,363.419 259.002,360.085 253.5,356.5C 254.34,355.265 255.34,354.265 256.5,353.5C 261.041,351.312 265.541,348.979 270,346.5C 272.56,347.53 275.06,348.697 277.5,350C 280.891,351.689 283.891,353.856 286.5,356.5C 283.106,359.221 279.439,361.554 275.5,363.5 Z"/></g>
<g><path style="opacity:1" fill="#939494" d="M 327.5,356.5 C 327.565,356.062 327.399,355.728 327,355.5C 321.915,358.626 316.749,361.626 311.5,364.5C 306.133,361.444 300.799,358.444 295.5,355.5C 300.527,351.832 305.861,348.499 311.5,345.5C 316.833,348.5 322.167,351.5 327.5,354.5C 328.773,355.257 328.773,355.923 327.5,356.5 Z"/></g>
<g><path style="opacity:1" fill="#636262" d="M 238.5,347.5 C 243.017,348.718 246.684,351.052 249.5,354.5C 245.543,352.527 241.876,350.194 238.5,347.5 Z"/></g>
<g><path style="opacity:1" fill="#676565" d="M 277.5,345.5 C 282.133,347.775 286.8,350.108 291.5,352.5C 293.739,351.212 296.072,350.212 298.5,349.5C 296.682,351.58 294.349,352.914 291.5,353.5C 286.156,351.834 281.489,349.167 277.5,345.5 Z"/></g>
<g><path style="opacity:1" fill="#626060" d="M 206.5,353.5 C 213.332,356.412 219.666,360.079 225.5,364.5C 218.668,361.588 212.334,357.921 206.5,353.5 Z"/></g>
<g><path style="opacity:1" fill="#929393" d="M 348.5,367.5 C 342.814,370.094 337.314,373.094 332,376.5C 329.174,374.171 326.008,372.504 322.5,371.5C 320.407,370.955 318.407,370.122 316.5,369C 315.549,368.282 315.383,367.449 316,366.5C 321.187,363.24 326.521,360.24 332,357.5C 337.963,360.224 343.463,363.558 348.5,367.5 Z"/></g>
<g><path style="opacity:1" fill="#8e8f8f" d="M 372.5,356.5 C 378.475,359.488 384.141,362.988 389.5,367C 384.629,371.007 379.295,374.507 373.5,377.5C 367.966,374.238 362.633,370.738 357.5,367C 362.536,363.488 367.536,359.988 372.5,356.5 Z"/></g>
<g><path style="opacity:1" fill="#b9b9ba" d="M 176.5,356.5 C 179.794,356.259 182.794,357.092 185.5,359C 207.58,371.455 229.413,384.288 251,397.5C 251.667,398.5 251.667,399.5 251,400.5C 239.041,407.895 226.874,414.895 214.5,421.5C 189.524,408.34 165.191,394.173 141.5,379C 141.759,377.739 142.426,376.739 143.5,376C 154.893,369.978 165.893,363.478 176.5,356.5 Z"/></g>
<g><path style="opacity:1" fill="#8e8e8e" d="M 300.5,372.5 C 297.194,374.489 293.861,376.489 290.5,378.5C 284.966,375.238 279.633,371.738 274.5,368C 275.056,366.989 275.722,366.156 276.5,365.5C 280.606,363.612 284.606,361.446 288.5,359C 289.833,358.333 291.167,358.333 292.5,359C 297.536,361.512 302.202,364.512 306.5,368C 305.103,370.209 303.103,371.709 300.5,372.5 Z"/></g>
<g><path style="opacity:1" fill="#696868" d="M 295.5,355.5 C 300.799,358.444 306.133,361.444 311.5,364.5C 316.749,361.626 321.915,358.626 327,355.5C 327.399,355.728 327.565,356.062 327.5,356.5C 322.516,359.995 317.182,362.995 311.5,365.5C 305.403,363.132 300.069,359.799 295.5,355.5 Z"/></g>
<g><path style="opacity:1" fill="#6f6e6e" d="M 335.5,354.5 C 341.483,357.492 347.483,360.492 353.5,363.5C 356.368,361.9 359.368,360.567 362.5,359.5C 359.738,361.725 356.738,363.725 353.5,365.5C 347.102,362.31 341.102,358.643 335.5,354.5 Z"/></g>
<g><path style="opacity:1" fill="#737373" d="M 348.5,367.5 C 343.463,371.442 337.963,374.776 332,377.5C 328.532,375.856 325.365,373.856 322.5,371.5C 326.008,372.504 329.174,374.171 332,376.5C 337.314,373.094 342.814,370.094 348.5,367.5 Z"/></g>
<g><path style="opacity:1" fill="#8e8f8f" d="M 350.5,369.5 C 356.48,371.321 362.147,373.988 367.5,377.5C 368.583,378.365 368.749,379.365 368,380.5C 362.915,383.626 357.749,386.626 352.5,389.5C 347.5,386.667 342.5,383.833 337.5,381C 336.269,379.817 336.269,378.651 337.5,377.5C 342.065,375.059 346.398,372.392 350.5,369.5 Z"/></g>
<g><path style="opacity:1" fill="#919191" d="M 392.5,387.5 C 389.024,384.377 385.024,382.043 380.5,380.5C 378.027,380.396 377.361,379.396 378.5,377.5C 383.749,374.626 388.915,371.626 394,368.5C 399.085,371.626 404.251,374.626 409.5,377.5C 410.521,378.002 410.688,378.668 410,379.5C 405.416,382.208 400.916,385.042 396.5,388C 394.934,388.765 393.601,388.598 392.5,387.5 Z"/></g>
<g><path style="opacity:1" fill="#929393" d="M 285.5,380.5 C 280.184,383.158 274.85,385.825 269.5,388.5C 265.966,386.567 262.3,384.9 258.5,383.5C 250.684,381.426 250.684,379.092 258.5,376.5C 262.017,374.241 265.683,372.241 269.5,370.5C 274.269,372.76 278.936,375.26 283.5,378C 284.381,378.708 285.047,379.542 285.5,380.5 Z"/></g>
<g><path style="opacity:1" fill="#919191" d="M 288.5,401.5 C 289.738,401.19 289.738,400.69 288.5,400C 285.09,397.628 281.423,395.795 277.5,394.5C 275.689,394.428 274.356,393.595 273.5,392C 274.816,390.341 276.482,389.175 278.5,388.5C 286.369,384.07 294.036,379.403 301.5,374.5C 304.708,372.979 307.874,371.312 311,369.5C 316.567,372.701 322.067,376.034 327.5,379.5C 315.202,387.655 302.535,395.321 289.5,402.5C 288.893,402.376 288.56,402.043 288.5,401.5 Z"/></g>
<g><path style="opacity:1" fill="#717171" d="M 232.5,368.5 C 238.186,371.094 243.686,374.094 249,377.5C 254.314,374.094 259.814,371.094 265.5,368.5C 262.516,371.326 259.183,373.659 255.5,375.5C 253.419,376.623 251.253,377.623 249,378.5C 243.037,375.776 237.537,372.442 232.5,368.5 Z"/></g>
<g><path style="opacity:1" fill="#919191" d="M 367.5,397.5 C 364.124,394.806 360.457,392.473 356.5,390.5C 361.853,387.067 367.353,383.733 373,380.5C 377.751,383.459 382.584,386.293 387.5,389C 389.26,389.965 389.594,391.132 388.5,392.5C 383.167,395.5 377.833,398.5 372.5,401.5C 370.581,400.388 368.914,399.054 367.5,397.5 Z"/></g>
<g><path style="opacity:1" fill="#939494" d="M 430.5,390.5 C 424.897,392.969 419.564,395.969 414.5,399.5C 409.833,396.833 405.167,394.167 400.5,391.5C 399.893,391.624 399.56,391.957 399.5,392.5C 397.668,391.86 397.335,390.86 398.5,389.5C 403.833,386.5 409.167,383.5 414.5,380.5C 420.234,383.358 425.567,386.691 430.5,390.5 Z"/></g>
<g><path style="opacity:1" fill="#929393" d="M 339.5,396.5 C 336.577,397.295 333.91,398.628 331.5,400.5C 326.833,397.833 322.167,395.167 317.5,392.5C 316.893,392.624 316.56,392.957 316.5,393.5C 314.668,392.86 314.335,391.86 315.5,390.5C 320.833,387.5 326.167,384.5 331.5,381.5C 336.749,384.374 341.915,387.374 347,390.5C 347.507,391.996 347.007,393.163 345.5,394C 343.593,395.122 341.593,395.955 339.5,396.5 Z"/></g>
<g><path style="opacity:1" fill="#626060" d="M 380.5,380.5 C 385.024,382.043 389.024,384.377 392.5,387.5C 387.976,385.957 383.976,383.623 380.5,380.5 Z"/></g>
<g><path style="opacity:1" fill="#727171" d="M 285.5,380.5 C 282.516,383.326 279.183,385.659 275.5,387.5C 273.527,388.487 271.527,389.487 269.5,390.5C 265.525,388.501 261.859,386.168 258.5,383.5C 262.3,384.9 265.966,386.567 269.5,388.5C 274.85,385.825 280.184,383.158 285.5,380.5 Z"/></g>
<g><path style="opacity:0.967" fill="#bebebe" d="M 479.5,385.5 C 479.829,391.537 479.496,397.537 478.5,403.5C 420.958,437.772 362.958,471.272 304.5,504C 300.848,504.499 297.182,504.665 293.5,504.5C 293.5,498.833 293.5,493.167 293.5,487.5C 298.705,487.866 303.705,487.033 308.5,485C 357.833,456.333 407.167,427.667 456.5,399C 459.266,397.629 461.599,395.796 463.5,393.5C 469.117,391.358 474.45,388.692 479.5,385.5 Z"/></g>
<g><path style="opacity:1" fill="#636262" d="M 356.5,390.5 C 360.457,392.473 364.124,394.806 367.5,397.5C 362.983,396.282 359.316,393.948 356.5,390.5 Z"/></g>
<g><path style="opacity:1" fill="#919292" d="M 350.5,412.5 C 350.938,412.565 351.272,412.399 351.5,412C 346.271,408.887 340.938,406.053 335.5,403.5C 340.537,399.558 346.037,396.224 352,393.5C 357.907,396.256 363.407,399.59 368.5,403.5C 362.998,407.085 357.331,410.419 351.5,413.5C 350.893,413.376 350.56,413.043 350.5,412.5 Z"/></g>
<g><path style="opacity:1" fill="#929393" d="M 403.5,406.5 C 399.91,407.628 396.577,409.295 393.5,411.5C 388.139,408.488 382.806,405.488 377.5,402.5C 382.347,398.817 387.513,395.484 393,392.5C 398.085,395.626 403.251,398.626 408.5,401.5C 409.833,402.5 409.833,403.5 408.5,404.5C 406.925,405.456 405.258,406.123 403.5,406.5 Z"/></g>
<g><path style="opacity:1" fill="#919292" d="M 325.5,405.5 C 325.44,404.957 325.107,404.624 324.5,404.5C 319.833,407.167 315.167,409.833 310.5,412.5C 308.261,411.212 305.928,410.212 303.5,409.5C 299.523,408.514 296.19,406.514 293.5,403.5C 298.917,400.041 304.417,396.708 310,393.5C 315.085,396.626 320.251,399.626 325.5,402.5C 326.776,403.614 326.776,404.614 325.5,405.5 Z"/></g>
<g><path style="opacity:1" fill="#636161" d="M 277.5,394.5 C 281.423,395.795 285.09,397.628 288.5,400C 289.738,400.69 289.738,401.19 288.5,401.5C 284.543,399.527 280.876,397.194 277.5,394.5 Z"/></g>
<g><path style="opacity:1" fill="#686767" d="M 316.5,393.5 C 316.56,392.957 316.893,392.624 317.5,392.5C 322.167,395.167 326.833,397.833 331.5,400.5C 333.91,398.628 336.577,397.295 339.5,396.5C 337.196,398.657 334.529,400.324 331.5,401.5C 326.351,399.093 321.351,396.426 316.5,393.5 Z"/></g>
<g><path style="opacity:1" fill="#737272" d="M 430.5,390.5 C 430.047,391.458 429.381,392.292 428.5,393C 423.936,395.74 419.269,398.24 414.5,400.5C 409.351,398.093 404.351,395.426 399.5,392.5C 399.56,391.957 399.893,391.624 400.5,391.5C 405.167,394.167 409.833,396.833 414.5,399.5C 419.564,395.969 424.897,392.969 430.5,390.5 Z"/></g>
<g><path style="opacity:1" fill="#7c7a7b" d="M 464.5,399.5 C 465.613,400.946 465.78,402.613 465,404.5C 461.25,406.959 457.417,409.292 453.5,411.5C 452.167,409.833 452.167,408.167 453.5,406.5C 457.401,404.392 461.067,402.059 464.5,399.5 Z"/></g>
<g><path style="opacity:1" fill="#919292" d="M 349.5,436.5 C 345.424,433.207 340.757,429.874 335.5,426.5C 346.775,419.189 358.442,412.355 370.5,406C 377.388,407.279 383.388,410.446 388.5,415.5C 376.665,422.918 364.665,430.085 352.5,437C 351.251,437.74 350.251,437.573 349.5,436.5 Z"/></g>
<g><path style="opacity:1" fill="#676666" d="M 377.5,402.5 C 382.806,405.488 388.139,408.488 393.5,411.5C 396.577,409.295 399.91,407.628 403.5,406.5C 400.524,408.993 397.191,410.993 393.5,412.5C 389.067,410.576 384.734,408.409 380.5,406C 378.937,405.241 377.937,404.074 377.5,402.5 Z"/></g>
<g><path style="opacity:1" fill="#8e8e8e" d="M 329.5,405.5 C 333.922,407.406 338.256,409.572 342.5,412C 344.327,412.899 345.66,414.233 346.5,416C 341.764,419.789 336.597,422.956 331,425.5C 325.947,423.39 321.114,420.89 316.5,418C 315.643,417.311 314.977,416.478 314.5,415.5C 319.357,411.908 324.357,408.575 329.5,405.5 Z"/></g>
<g><path style="opacity:1" fill="#626060" d="M 335.5,403.5 C 340.938,406.053 346.271,408.887 351.5,412C 351.272,412.399 350.938,412.565 350.5,412.5C 344.995,410.251 339.995,407.251 335.5,403.5 Z"/></g>
<g><path style="opacity:1" fill="#737373" d="M 325.5,405.5 C 320.649,408.426 315.649,411.093 310.5,413.5C 307.651,412.914 305.318,411.58 303.5,409.5C 305.928,410.212 308.261,411.212 310.5,412.5C 315.167,409.833 319.833,407.167 324.5,404.5C 325.107,404.624 325.44,404.957 325.5,405.5 Z"/></g>
<g><path style="opacity:1" fill="#7e7c7d" d="M 447.5,409.5 C 448.649,409.791 449.316,410.624 449.5,412C 449.167,412.833 448.833,413.667 448.5,414.5C 444.5,416.833 440.5,419.167 436.5,421.5C 435.167,419.833 435.167,418.167 436.5,416.5C 440.401,414.392 444.067,412.059 447.5,409.5 Z"/></g>
<g><path style="opacity:1" fill="#646262" d="M 335.5,426.5 C 340.757,429.874 345.424,433.207 349.5,436.5C 344.742,434.258 340.075,431.758 335.5,429C 334.226,428.023 334.226,427.189 335.5,426.5 Z"/></g>
</svg>
