<?xml version="1.0" encoding="UTF-8"?>
<!DOCTYPE svg PUBLIC "-//W3C//DTD SVG 1.1//EN" "http://www.w3.org/Graphics/SVG/1.1/DTD/svg11.dtd">
<svg xmlns="http://www.w3.org/2000/svg" version="1.1" width="512px" height="512px" style="shape-rendering:geometricPrecision; text-rendering:geometricPrecision; image-rendering:optimizeQuality; fill-rule:evenodd; clip-rule:evenodd" xmlns:xlink="http://www.w3.org/1999/xlink">
<g><path style="opacity:0.99" fill="#7f5232" d="M 308.5,-0.5 C 314.167,-0.5 319.833,-0.5 325.5,-0.5C 333.744,3.29572 341.411,8.12905 348.5,14C 356.046,16.8878 363.713,17.2212 371.5,15C 377.181,11.8272 382.514,8.16052 387.5,4C 396.95,-2.22391 403.284,-0.0572465 406.5,10.5C 405.844,12.4534 405.511,14.4534 405.5,16.5C 404.942,22.8455 404.276,29.1789 403.5,35.5C 401.159,54.2072 394.159,70.8738 382.5,85.5C 377.77,90.2359 372.77,94.5693 367.5,98.5C 359.758,102.853 351.424,105.186 342.5,105.5C 350.272,91.9465 356.438,77.6132 361,62.5C 361.43,53.775 357.263,50.275 348.5,52C 347.333,53.1667 346.167,54.3333 345,55.5C 339.749,73.0011 332.082,89.3345 322,104.5C 319,105.833 316,105.833 313,104.5C 302.338,89.1748 294.338,72.5081 289,54.5C 285.205,51.1966 281.038,50.6966 276.5,53C 273.735,55.9948 272.902,59.4948 274,63.5C 278.336,78.3525 284.502,92.3525 292.5,105.5C 288.085,105.695 283.751,105.195 279.5,104C 274.77,102.258 270.103,100.425 265.5,98.5C 245.064,81.8079 233.23,60.1413 230,33.5C 228.558,24.2075 228.224,14.8742 229,5.5C 231.821,1.33705 235.655,-0.162946 240.5,1C 247.436,4.93965 254.103,9.27298 260.5,14C 268.046,16.8878 275.713,17.2212 283.5,15C 291.496,9.14644 299.829,3.97977 308.5,-0.5 Z"/></g>
<g><path style="opacity:0.98" fill="#f2d55a" d="M 405.5,16.5 C 423.736,19.912 436.903,29.912 445,46.5C 449.988,63.2129 446.488,77.8796 434.5,90.5C 452.621,94.6398 468.121,103.307 481,116.5C 484.891,127.569 481.058,132.402 469.5,131C 455.821,117.163 439.154,109.163 419.5,107C 405.81,105.999 392.143,104.832 378.5,103.5C 378.167,103.5 377.833,103.5 377.5,103.5C 377.5,102.833 377.167,102.5 376.5,102.5C 373.378,101.439 370.378,100.105 367.5,98.5C 372.77,94.5693 377.77,90.2359 382.5,85.5C 395.414,88.1498 407.414,85.9832 418.5,79C 432.589,64.8848 431.589,51.8848 415.5,40C 411.67,38.0017 407.67,36.5017 403.5,35.5C 404.276,29.1789 404.942,22.8455 405.5,16.5 Z"/></g>
<g><path style="opacity:0.996" fill="#f19b1e" d="M 203.5,146.5 C 203.5,146.833 203.5,147.167 203.5,147.5C 202.668,120.336 202.168,93.0031 202,65.5C 197.937,73.1233 191.77,78.2899 183.5,81C 159.733,88.9688 135.733,89.6355 111.5,83C 100.929,79.9017 92.9288,73.735 87.5,64.5C 86.7653,57.1346 89.432,51.3013 95.5,47C 110.861,37.8265 127.527,33.6598 145.5,34.5C 162.612,33.9535 178.612,37.7868 193.5,46C 198.751,49.5631 201.918,54.3964 203,60.5C 203.5,89.1647 203.667,117.831 203.5,146.5 Z"/></g>
<g><path style="opacity:1" fill="#603e26" d="M 342.5,105.5 C 341.733,106.172 341.066,107.005 340.5,108C 351.304,117.803 361.804,127.97 372,138.5C 373.565,144.201 371.732,148.367 366.5,151C 364.029,151.706 361.695,151.373 359.5,150C 348.983,139.983 338.317,130.149 327.5,120.5C 326.668,130.483 326.168,140.483 326,150.5C 323.229,156.637 318.729,158.47 312.5,156C 310.513,154.681 309.346,152.848 309,150.5C 308.667,140.167 308.333,129.833 308,119.5C 297.167,129.667 286.333,139.833 275.5,150C 270.38,152.506 266.214,151.339 263,146.5C 262.183,143.036 262.517,139.702 264,136.5C 274.167,127 284.333,117.5 294.5,108C 293.619,107.292 292.953,106.458 292.5,105.5C 284.502,92.3525 278.336,78.3525 274,63.5C 272.902,59.4948 273.735,55.9948 276.5,53C 281.038,50.6966 285.205,51.1966 289,54.5C 294.338,72.5081 302.338,89.1748 313,104.5C 316,105.833 319,105.833 322,104.5C 332.082,89.3345 339.749,73.0011 345,55.5C 346.167,54.3333 347.333,53.1667 348.5,52C 357.263,50.275 361.43,53.775 361,62.5C 356.438,77.6132 350.272,91.9465 342.5,105.5 Z"/></g>
<g><path style="opacity:1" fill="#e57e25" d="M 87.5,64.5 C 92.9288,73.735 100.929,79.9017 111.5,83C 135.733,89.6355 159.733,88.9688 183.5,81C 191.77,78.2899 197.937,73.1233 202,65.5C 202.168,93.0031 202.668,120.336 203.5,147.5C 181.484,172.852 163.484,200.852 149.5,231.5C 149.5,217.167 149.5,202.833 149.5,188.5C 149.457,177.945 144.457,170.778 134.5,167C 119.435,160.933 103.768,158.1 87.5,158.5C 87.5,127.167 87.5,95.8333 87.5,64.5 Z"/></g>
<g><path style="opacity:0.998" fill="#a56a43" d="M 265.5,98.5 C 270.103,100.425 274.77,102.258 279.5,104C 283.751,105.195 288.085,105.695 292.5,105.5C 292.953,106.458 293.619,107.292 294.5,108C 284.333,117.5 274.167,127 264,136.5C 262.517,139.702 262.183,143.036 263,146.5C 266.214,151.339 270.38,152.506 275.5,150C 286.333,139.833 297.167,129.667 308,119.5C 308.333,129.833 308.667,140.167 309,150.5C 309.346,152.848 310.513,154.681 312.5,156C 318.729,158.47 323.229,156.637 326,150.5C 326.168,140.483 326.668,130.483 327.5,120.5C 338.317,130.149 348.983,139.983 359.5,150C 361.695,151.373 364.029,151.706 366.5,151C 371.732,148.367 373.565,144.201 372,138.5C 361.804,127.97 351.304,117.803 340.5,108C 341.066,107.005 341.733,106.172 342.5,105.5C 351.424,105.186 359.758,102.853 367.5,98.5C 370.378,100.105 373.378,101.439 376.5,102.5C 377.167,102.5 377.5,102.833 377.5,103.5C 377.833,103.5 378.167,103.5 378.5,103.5C 438.225,143.795 478.392,198.795 499,268.5C 504.792,287.968 508.959,307.634 511.5,327.5C 511.5,339.833 511.5,352.167 511.5,364.5C 503.763,416.74 473.763,447.573 421.5,457C 413.869,458.04 406.202,458.706 398.5,459C 342.168,459.5 285.834,459.667 229.5,459.5C 229.832,422.663 229.498,385.996 228.5,349.5C 227.552,345.112 225.219,341.612 221.5,339C 211.461,332.431 200.461,328.431 188.5,327C 175.478,326.266 162.478,326.432 149.5,327.5C 149.5,295.5 149.5,263.5 149.5,231.5C 163.484,200.852 181.484,172.852 203.5,147.5C 203.5,147.167 203.5,146.833 203.5,146.5C 222.037,127.586 242.704,111.586 265.5,98.5 Z"/></g>
<g><path style="opacity:1" fill="#f0c319" d="M 87.5,158.5 C 103.768,158.1 119.435,160.933 134.5,167C 144.457,170.778 149.457,177.945 149.5,188.5C 143.855,198.019 135.522,204.186 124.5,207C 100.945,213.504 77.6121,212.837 54.5,205C 45.4134,201.736 38.7468,195.902 34.5,187.5C 34.5737,178.591 38.5737,172.091 46.5,168C 59.3893,161.528 73.0559,158.361 87.5,158.5 Z"/></g>
<g><path style="opacity:1" fill="#fbd5ab" d="M 314.5,184.5 C 324.898,185.915 328.898,191.915 326.5,202.5C 349.395,204.893 360.895,217.559 361,240.5C 358.367,245.732 354.201,247.565 348.5,246C 344.243,242.544 342.41,238.044 343,232.5C 340.283,224.721 334.783,220.721 326.5,220.5C 326.5,232.167 326.5,243.833 326.5,255.5C 347.359,257.359 359.026,268.692 361.5,289.5C 359.778,311.223 348.111,323.556 326.5,326.5C 326.867,330.967 326.367,335.3 325,339.5C 318.727,345.365 313.394,344.698 309,337.5C 308.501,333.848 308.335,330.182 308.5,326.5C 284.641,323.765 273.141,310.432 274,286.5C 279.333,281.167 284.667,281.167 290,286.5C 289.883,299.327 296.05,306.661 308.5,308.5C 308.5,296.5 308.5,284.5 308.5,272.5C 286.572,271.238 274.905,259.572 273.5,237.5C 273.994,221.03 281.994,209.863 297.5,204C 301.086,202.892 304.753,202.392 308.5,202.5C 308.334,198.486 308.501,194.486 309,190.5C 310.36,187.977 312.193,185.977 314.5,184.5 Z"/></g>
<g><path style="opacity:0.997" fill="#f29c1f" d="M 34.5,187.5 C 38.7468,195.902 45.4134,201.736 54.5,205C 77.6121,212.837 100.945,213.504 124.5,207C 135.522,204.186 143.855,198.019 149.5,188.5C 149.5,202.833 149.5,217.167 149.5,231.5C 149.5,263.5 149.5,295.5 149.5,327.5C 140.361,329.56 131.695,333.06 123.5,338C 117.136,342.231 114.136,348.064 114.5,355.5C 114.5,382.833 114.5,410.167 114.5,437.5C 114.167,437.5 113.833,437.5 113.5,437.5C 112.064,432.471 109.064,428.638 104.5,426C 82.3688,414.489 59.0355,411.322 34.5,416.5C 34.5,340.167 34.5,263.833 34.5,187.5 Z"/></g>
<g><path style="opacity:1" fill="#a66c44" d="M 302.5,220.5 C 304.5,220.5 306.5,220.5 308.5,220.5C 308.5,232.167 308.5,243.833 308.5,255.5C 295.777,253.746 289.944,246.413 291,233.5C 293.3,227.706 297.133,223.373 302.5,220.5 Z"/></g>
<g><path style="opacity:1" fill="#a56b44" d="M 326.5,273.5 C 337.177,274.177 342.844,279.844 343.5,290.5C 342.626,301.04 336.959,307.04 326.5,308.5C 326.5,296.833 326.5,285.167 326.5,273.5 Z"/></g>
<g><path style="opacity:1" fill="#f2d45a" d="M 228.5,349.5 C 228.426,358.409 224.426,364.909 216.5,369C 197.707,377.399 178.04,380.399 157.5,378C 145.325,376.792 133.991,373.126 123.5,367C 119.462,363.817 116.462,359.984 114.5,355.5C 114.136,348.064 117.136,342.231 123.5,338C 131.695,333.06 140.361,329.56 149.5,327.5C 162.478,326.432 175.478,326.266 188.5,327C 200.461,328.431 211.461,332.431 221.5,339C 225.219,341.612 227.552,345.112 228.5,349.5 Z"/></g>
<g><path style="opacity:1" fill="#fbd5ab" d="M 473.5,343.5 C 477.95,343.142 481.45,344.808 484,348.5C 484.064,397.111 459.898,424.611 411.5,431C 405.056,431.915 398.723,431.581 392.5,430C 388.097,424.343 388.764,419.343 394.5,415C 411.975,414.709 428.309,410.376 443.5,402C 459.827,388.838 467.66,371.672 467,350.5C 468.694,347.642 470.861,345.309 473.5,343.5 Z"/></g>
<g><path style="opacity:1" fill="#efc319" d="M 228.5,349.5 C 229.498,385.996 229.832,422.663 229.5,459.5C 230.951,467.422 228.951,474.255 223.5,480C 213.339,487.278 202.006,491.611 189.5,493C 167.209,496.487 145.876,493.487 125.5,484C 121.305,480.97 117.639,477.47 114.5,473.5C 114.5,461.5 114.5,449.5 114.5,437.5C 114.5,410.167 114.5,382.833 114.5,355.5C 116.462,359.984 119.462,363.817 123.5,367C 133.991,373.126 145.325,376.792 157.5,378C 178.04,380.399 197.707,377.399 216.5,369C 224.426,364.909 228.426,358.409 228.5,349.5 Z"/></g>
<g><path style="opacity:1" fill="#f9e9ae" d="M 113.5,437.5 C 113.965,441.792 113.132,445.792 111,449.5C 103.485,457.342 94.3179,462.176 83.5,464C 61.0903,469.399 39.0903,468.066 17.5,460C 8.92233,456.586 2.92233,450.753 -0.5,442.5C -0.5,440.167 -0.5,437.833 -0.5,435.5C 4.3518,428.213 11.0185,423.046 19.5,420C 24.3292,418.042 29.3292,416.876 34.5,416.5C 59.0355,411.322 82.3688,414.489 104.5,426C 109.064,428.638 112.064,432.471 113.5,437.5 Z"/></g>
<g><path style="opacity:1" fill="#f3d45a" d="M 113.5,437.5 C 113.833,437.5 114.167,437.5 114.5,437.5C 114.5,449.5 114.5,461.5 114.5,473.5C 114.666,478.844 114.499,484.177 114,489.5C 110.078,496.751 104.245,501.918 96.5,505C 88.5406,507.821 80.5406,509.987 72.5,511.5C 62.1667,511.5 51.8333,511.5 41.5,511.5C 28.5737,509.688 16.5737,505.188 5.5,498C 3.36056,495.522 1.36056,493.022 -0.5,490.5C -0.5,474.5 -0.5,458.5 -0.5,442.5C 2.92233,450.753 8.92233,456.586 17.5,460C 39.0903,468.066 61.0903,469.399 83.5,464C 94.3179,462.176 103.485,457.342 111,449.5C 113.132,445.792 113.965,441.792 113.5,437.5 Z"/></g>
</svg>
