<?xml version="1.0" encoding="UTF-8"?>
<!DOCTYPE svg PUBLIC "-//W3C//DTD SVG 1.1//EN" "http://www.w3.org/Graphics/SVG/1.1/DTD/svg11.dtd">
<svg xmlns="http://www.w3.org/2000/svg" version="1.1" width="512px" height="512px" style="shape-rendering:geometricPrecision; text-rendering:geometricPrecision; image-rendering:optimizeQuality; fill-rule:evenodd; clip-rule:evenodd" xmlns:xlink="http://www.w3.org/1999/xlink">
<g><path style="opacity:0.998" fill="#8c9ba7" d="M 317.5,-0.5 C 323.167,-0.5 328.833,-0.5 334.5,-0.5C 334.047,10.2702 334.547,20.9369 336,31.5C 341.225,34.947 346.891,37.2803 353,38.5C 358.294,37.3695 361.461,34.0361 362.5,28.5C 368.656,30.4951 374.489,33.1618 380,36.5C 383.333,33.9983 386.499,31.3316 389.5,28.5C 391.725,32.2347 394.558,35.568 398,38.5C 398.667,40.5 398.667,42.5 398,44.5C 393.696,48.1248 390.196,52.2915 387.5,57C 391.691,65.5506 395.191,74.3839 398,83.5C 398.465,84.9308 399.299,86.0975 400.5,87C 405.823,87.4994 411.156,87.666 416.5,87.5C 416.738,89.4044 417.738,90.7377 419.5,91.5C 421.607,92.4682 423.941,92.8016 426.5,92.5C 426.91,98.6208 426.41,104.621 425,110.5C 424.5,111 424,111.5 423.5,112C 417.5,112.333 411.5,112.667 405.5,113C 404.584,113.374 403.75,113.874 403,114.5C 398.308,128.242 392.641,141.576 386,154.5C 385.365,156.635 385.699,158.635 387,160.5C 390.035,163.87 393.368,166.87 397,169.5C 398.076,171.067 398.909,172.734 399.5,174.5C 396.216,179.453 392.216,183.786 387.5,187.5C 385.704,186.207 384.037,184.707 382.5,183C 381.5,182.833 380.5,182.667 379.5,182.5C 376.407,183.545 373.407,184.878 370.5,186.5C 370.382,183.312 369.549,180.312 368,177.5C 366.874,176.056 365.374,175.39 363.5,175.5C 354.949,179.74 345.949,182.907 336.5,185C 335.667,185.833 334.833,186.667 334,187.5C 333.788,198.212 333.288,208.879 332.5,219.5C 328.154,219.666 323.821,219.499 319.5,219C 318.692,218.692 318.025,218.192 317.5,217.5C 316.7,210.216 316.2,202.883 316,195.5C 315.167,194.667 314.333,193.833 313.5,193C 304.384,190.191 295.551,186.691 287,182.5C 281.286,186.203 276.119,190.703 271.5,196C 270.271,196.781 268.938,197.281 267.5,197.5C 259.91,191.414 252.743,184.747 246,177.5C 245.333,175.833 245.333,174.167 246,172.5C 250.333,168.167 254.667,163.833 259,159.5C 260.301,157.635 260.635,155.635 260,153.5C 256.02,146.558 253.02,139.224 251,131.5C 250.215,129.714 249.049,128.214 247.5,127C 240.5,126.667 233.5,126.333 226.5,126C 225.692,125.692 225.025,125.192 224.5,124.5C 223.536,117.558 223.203,110.558 223.5,103.5C 223.335,100.482 223.502,97.4816 224,94.5C 224.5,94 225,93.5 225.5,93C 232.833,92.6667 240.167,92.3333 247.5,92C 248.333,91.1667 249.167,90.3333 250,89.5C 252.011,81.8179 254.844,74.4845 258.5,67.5C 259.39,65.2181 259.556,62.8848 259,60.5C 254.667,56.1667 250.333,51.8333 246,47.5C 245.333,45.1667 245.333,42.8333 246,40.5C 252.167,34.3333 258.333,28.1667 264.5,22C 266.833,21.3333 269.167,21.3333 271.5,22C 276.119,27.2967 281.286,31.7967 287,35.5C 295.582,31.4161 304.415,27.9161 313.5,25C 314,24.5 314.5,24 315,23.5C 315.333,16.5 315.667,9.5 316,2.5C 316.513,1.47344 317.013,0.473444 317.5,-0.5 Z"/></g>
<g><path style="opacity:1" fill="#7a8c98" d="M 334.5,-0.5 C 339.167,-0.5 343.833,-0.5 348.5,-0.5C 349.504,0.682751 350.338,2.01608 351,3.5C 351.333,10.1667 351.667,16.8333 352,23.5C 355.177,25.8372 358.677,27.5039 362.5,28.5C 361.461,34.0361 358.294,37.3695 353,38.5C 346.891,37.2803 341.225,34.947 336,31.5C 334.547,20.9369 334.047,10.2702 334.5,-0.5 Z"/></g>
<g><path style="opacity:1" fill="#7a8c98" d="M 408.5,67.5 C 411.753,73.9227 414.419,80.5893 416.5,87.5C 411.156,87.666 405.823,87.4994 400.5,87C 399.299,86.0975 398.465,84.9308 398,83.5C 395.191,74.3839 391.691,65.5506 387.5,57C 390.196,52.2915 393.696,48.1248 398,44.5C 398.667,42.5 398.667,40.5 398,38.5C 394.558,35.568 391.725,32.2347 389.5,28.5C 392.213,22.9277 396.547,20.761 402.5,22C 408.667,28.1667 414.833,34.3333 421,40.5C 421.755,43.3033 421.422,45.9699 420,48.5C 414.945,53.0524 410.445,58.0524 406.5,63.5C 407.18,64.8599 407.847,66.1932 408.5,67.5 Z"/></g>
<g><path style="opacity:1" fill="#596c76" d="M 351.5,62.5 C 369.232,81.448 372.398,102.781 361,126.5C 347.216,146.594 328.383,154.261 304.5,149.5C 303.893,149.624 303.56,149.957 303.5,150.5C 283.254,132.849 278.087,111.515 288,86.5C 303.122,62.0068 324.288,54.0068 351.5,62.5 Z"/></g>
<g><path style="opacity:1" fill="#475b62" d="M 351.5,62.5 C 374.514,72.5028 385.348,90.1694 384,115.5C 376.046,148.449 355.212,162.949 321.5,159C 315.08,156.956 309.08,154.122 303.5,150.5C 303.56,149.957 303.893,149.624 304.5,149.5C 328.383,154.261 347.216,146.594 361,126.5C 372.398,102.781 369.232,81.448 351.5,62.5 Z"/></g>
<g><path style="opacity:0.998" fill="#596c76" d="M 258.5,67.5 C 254.844,74.4845 252.011,81.8179 250,89.5C 249.167,90.3333 248.333,91.1667 247.5,92C 240.167,92.3333 232.833,92.6667 225.5,93C 225,93.5 224.5,94 224,94.5C 223.502,97.4816 223.335,100.482 223.5,103.5C 161.832,103.333 100.166,103.5 38.5,104C 35.2716,105.563 33.1049,108.063 32,111.5C 31.5,194.166 31.3333,276.833 31.5,359.5C 20.8333,359.5 10.1667,359.5 -0.5,359.5C -0.5,268.5 -0.5,177.5 -0.5,86.5C 2.75018,76.7534 9.41684,70.5868 19.5,68C 99.166,67.5 178.833,67.3333 258.5,67.5 Z"/></g>
<g><path style="opacity:0.999" fill="#586b76" d="M 408.5,67.5 C 428.833,67.5 449.167,67.5 469.5,67.5C 479.317,70.4795 486.151,76.8128 490,86.5C 490.5,177.499 490.667,268.499 490.5,359.5C 486.833,359.5 483.167,359.5 479.5,359.5C 479.667,276.833 479.5,194.166 479,111.5C 477.34,106.332 473.84,103.665 468.5,103.5C 460.35,102.507 452.017,102.174 443.5,102.5C 443.664,99.8127 443.497,97.146 443,94.5C 442.097,93.2986 440.931,92.4652 439.5,92C 432.842,91.5004 426.175,91.3337 419.5,91.5C 417.738,90.7377 416.738,89.4044 416.5,87.5C 414.419,80.5893 411.753,73.9227 408.5,67.5 Z"/></g>
<g><path style="opacity:1" fill="#465a61" d="M 469.5,67.5 C 476.841,67.3337 484.174,67.5003 491.5,68C 501.583,70.5868 508.25,76.7534 511.5,86.5C 511.5,177.5 511.5,268.5 511.5,359.5C 504.5,359.5 497.5,359.5 490.5,359.5C 490.667,268.499 490.5,177.499 490,86.5C 486.151,76.8128 479.317,70.4795 469.5,67.5 Z"/></g>
<g><path style="opacity:1" fill="#d7e5ea" d="M 340.5,87.5 C 345.927,106.301 338.927,117.301 319.5,120.5C 317.452,120.328 315.452,119.995 313.5,119.5C 307.702,103.918 312.702,93.0847 328.5,87C 332.537,86.3933 336.537,86.56 340.5,87.5 Z"/></g>
<g><path style="opacity:1" fill="#c3d1db" d="M 340.5,87.5 C 357.073,96.0588 360.573,108.392 351,124.5C 338.694,135.466 326.694,135.133 315,123.5C 314.209,122.255 313.709,120.922 313.5,119.5C 315.452,119.995 317.452,120.328 319.5,120.5C 338.927,117.301 345.927,106.301 340.5,87.5 Z"/></g>
<g><path style="opacity:1" fill="#798c98" d="M 419.5,91.5 C 426.175,91.3337 432.842,91.5004 439.5,92C 440.931,92.4652 442.097,93.2986 443,94.5C 443.497,97.146 443.664,99.8127 443.5,102.5C 452.017,102.174 460.35,102.507 468.5,103.5C 462.5,103.5 456.5,103.5 450.5,103.5C 448.167,103.5 445.833,103.5 443.5,103.5C 443.797,110.558 443.464,117.558 442.5,124.5C 441.975,125.192 441.308,125.692 440.5,126C 433.5,126.333 426.5,126.667 419.5,127C 418.667,127.833 417.833,128.667 417,129.5C 414.753,137.989 411.42,145.989 407,153.5C 406.365,155.635 406.699,157.635 408,159.5C 412.333,163.833 416.667,168.167 421,172.5C 421.635,174.635 421.301,176.635 420,178.5C 413.802,185.032 407.302,191.199 400.5,197C 399.167,197.667 397.833,197.667 396.5,197C 393.296,193.964 390.296,190.797 387.5,187.5C 392.216,183.786 396.216,179.453 399.5,174.5C 398.909,172.734 398.076,171.067 397,169.5C 393.368,166.87 390.035,163.87 387,160.5C 385.699,158.635 385.365,156.635 386,154.5C 392.641,141.576 398.308,128.242 403,114.5C 403.75,113.874 404.584,113.374 405.5,113C 411.5,112.667 417.5,112.333 423.5,112C 424,111.5 424.5,111 425,110.5C 426.41,104.621 426.91,98.6208 426.5,92.5C 423.941,92.8016 421.607,92.4682 419.5,91.5 Z"/></g>
<g><path style="opacity:1" fill="#81ade2" d="M 223.5,103.5 C 223.203,110.558 223.536,117.558 224.5,124.5C 225.025,125.192 225.692,125.692 226.5,126C 233.5,126.333 240.5,126.667 247.5,127C 249.049,128.214 250.215,129.714 251,131.5C 253.02,139.224 256.02,146.558 260,153.5C 260.635,155.635 260.301,157.635 259,159.5C 254.667,163.833 250.333,168.167 246,172.5C 245.333,174.167 245.333,175.833 246,177.5C 252.743,184.747 259.91,191.414 267.5,197.5C 268.938,197.281 270.271,196.781 271.5,196C 276.119,190.703 281.286,186.203 287,182.5C 295.551,186.691 304.384,190.191 313.5,193C 314.333,193.833 315.167,194.667 316,195.5C 316.2,202.883 316.7,210.216 317.5,217.5C 318.025,218.192 318.692,218.692 319.5,219C 323.821,219.499 328.154,219.666 332.5,219.5C 337.897,219.785 343.23,219.451 348.5,218.5C 349.192,217.975 349.692,217.308 350,216.5C 350.333,209.5 350.667,202.5 351,195.5C 351.833,194.667 352.667,193.833 353.5,193C 359.391,191.316 365.057,189.149 370.5,186.5C 373.407,184.878 376.407,183.545 379.5,182.5C 380.5,182.667 381.5,182.833 382.5,183C 384.037,184.707 385.704,186.207 387.5,187.5C 390.296,190.797 393.296,193.964 396.5,197C 397.833,197.667 399.167,197.667 400.5,197C 407.302,191.199 413.802,185.032 420,178.5C 421.301,176.635 421.635,174.635 421,172.5C 416.667,168.167 412.333,163.833 408,159.5C 406.699,157.635 406.365,155.635 407,153.5C 411.42,145.989 414.753,137.989 417,129.5C 417.833,128.667 418.667,127.833 419.5,127C 426.5,126.667 433.5,126.333 440.5,126C 441.308,125.692 441.975,125.192 442.5,124.5C 443.464,117.558 443.797,110.558 443.5,103.5C 445.833,103.5 448.167,103.5 450.5,103.5C 453.733,104.895 456.233,107.228 458,110.5C 458.5,193.499 458.667,276.499 458.5,359.5C 316.167,359.5 173.833,359.5 31.5,359.5C 31.3333,276.833 31.5,194.166 32,111.5C 33.1049,108.063 35.2716,105.563 38.5,104C 100.166,103.5 161.832,103.333 223.5,103.5 Z"/></g>
<g><path style="opacity:1" fill="#528fd7" d="M 450.5,103.5 C 456.5,103.5 462.5,103.5 468.5,103.5C 473.84,103.665 477.34,106.332 479,111.5C 479.5,194.166 479.667,276.833 479.5,359.5C 472.5,359.5 465.5,359.5 458.5,359.5C 458.667,276.499 458.5,193.499 458,110.5C 456.233,107.228 453.733,104.895 450.5,103.5 Z"/></g>
<g><path style="opacity:1" fill="#8c9ca8" d="M 149.5,152.5 C 149.783,153.289 150.283,153.956 151,154.5C 151.333,162.167 151.667,169.833 152,177.5C 157.973,180.903 164.139,183.903 170.5,186.5C 172.029,186.471 173.196,185.804 174,184.5C 175.456,181.924 176.623,179.258 177.5,176.5C 180.741,177.705 183.908,179.038 187,180.5C 189.886,179.454 192.386,177.787 194.5,175.5C 197.887,178.883 200.887,182.55 203.5,186.5C 200.255,191.252 196.422,195.585 192,199.5C 191.333,200.5 191.333,201.5 192,202.5C 194.713,207.295 197.046,212.295 199,217.5C 199.833,218.333 200.667,219.167 201.5,220C 206.155,220.499 210.821,220.666 215.5,220.5C 216.167,221.833 217.167,222.833 218.5,223.5C 218.783,224.289 219.283,224.956 220,225.5C 220.8,233.216 220.633,240.883 219.5,248.5C 224.12,249.493 228.786,249.827 233.5,249.5C 228.025,250.489 222.358,250.822 216.5,250.5C 210.907,250.193 205.407,250.527 200,251.5C 198.128,258.795 195.295,265.628 191.5,272C 194.618,276.121 198.118,279.954 202,283.5C 202.638,284.609 203.138,285.775 203.5,287C 200.678,290.655 197.678,294.155 194.5,297.5C 192.438,295.436 190.105,293.769 187.5,292.5C 184.15,293.843 180.817,295.177 177.5,296.5C 176.243,293.904 175.076,291.237 174,288.5C 173.196,287.196 172.029,286.529 170.5,286.5C 164.494,288.886 158.661,291.553 153,294.5C 152.667,302.5 152.333,310.5 152,318.5C 151.283,319.044 150.783,319.711 150.5,320.5C 147.15,320.665 143.817,320.498 140.5,320C 140,319.5 139.5,319 139,318.5C 138.81,312.584 138.31,306.751 137.5,301C 130.268,298.717 123.268,295.884 116.5,292.5C 112.083,295.41 108.083,298.91 104.5,303C 102.833,303.667 101.167,303.667 99.5,303C 94.6667,298.167 89.8333,293.333 85,288.5C 84.3333,287.167 84.3333,285.833 85,284.5C 88.3333,281.167 91.6667,277.833 95,274.5C 95.6667,272.833 95.6667,271.167 95,269.5C 92.1544,262.949 89.3211,256.449 86.5,250C 80.8333,249.667 75.1667,249.333 69.5,249C 69,248.5 68.5,248 68,247.5C 67.3333,240.167 67.3333,232.833 68,225.5C 68.5,225 69,224.5 69.5,224C 75.1667,223.667 80.8333,223.333 86.5,223C 88.9294,216.397 91.7627,209.897 95,203.5C 95.6667,201.833 95.6667,200.167 95,198.5C 91.6667,195.167 88.3333,191.833 85,188.5C 84.3333,187.167 84.3333,185.833 85,184.5C 90.0787,178.916 95.5787,173.916 101.5,169.5C 105.582,172.075 109.249,175.242 112.5,179C 113.729,179.781 115.062,180.281 116.5,180.5C 123.567,177.202 130.734,174.202 138,171.5C 138.333,165.833 138.667,160.167 139,154.5C 139.5,154 140,153.5 140.5,153C 143.482,152.502 146.482,152.335 149.5,152.5 Z"/></g>
<g><path style="opacity:1" fill="#7a8c98" d="M 149.5,152.5 C 154.179,152.334 158.845,152.501 163.5,153C 164,153.5 164.5,154 165,154.5C 165.333,160.167 165.667,165.833 166,171.5C 169.876,173.284 173.709,174.951 177.5,176.5C 176.623,179.258 175.456,181.924 174,184.5C 173.196,185.804 172.029,186.471 170.5,186.5C 164.139,183.903 157.973,180.903 152,177.5C 151.667,169.833 151.333,162.167 151,154.5C 150.283,153.956 149.783,153.289 149.5,152.5 Z"/></g>
<g><path style="opacity:1" fill="#7a8c98" d="M 215.5,220.5 C 210.821,220.666 206.155,220.499 201.5,220C 200.667,219.167 199.833,218.333 199,217.5C 197.046,212.295 194.713,207.295 192,202.5C 191.333,201.5 191.333,200.5 192,199.5C 196.422,195.585 200.255,191.252 203.5,186.5C 200.887,182.55 197.887,178.883 194.5,175.5C 196.596,171.204 199.93,169.371 204.5,170C 209.333,174.833 214.167,179.667 219,184.5C 219.667,185.833 219.667,187.167 219,188.5C 214.786,192.378 210.952,196.545 207.5,201C 210.852,207.206 213.519,213.706 215.5,220.5 Z"/></g>
<g><path style="opacity:1" fill="#7a8c98" d="M 370.5,186.5 C 365.057,189.149 359.391,191.316 353.5,193C 352.667,193.833 351.833,194.667 351,195.5C 350.667,202.5 350.333,209.5 350,216.5C 349.692,217.308 349.192,217.975 348.5,218.5C 343.23,219.451 337.897,219.785 332.5,219.5C 333.288,208.879 333.788,198.212 334,187.5C 334.833,186.667 335.667,185.833 336.5,185C 345.949,182.907 354.949,179.74 363.5,175.5C 365.374,175.39 366.874,176.056 368,177.5C 369.549,180.312 370.382,183.312 370.5,186.5 Z"/></g>
<g><path style="opacity:1" fill="#d8e6eb" d="M 165.5,207.5 C 172.747,221.297 171.914,234.63 163,247.5C 152.638,257.291 140.471,260.291 126.5,256.5C 115.363,238.996 117.696,223.496 133.5,210C 143.731,203.722 154.398,202.888 165.5,207.5 Z"/></g>
<g><path style="opacity:1" fill="#c4d2dc" d="M 165.5,207.5 C 180.743,215.662 186.577,228.328 183,245.5C 175.223,264.973 161.056,272.139 140.5,267C 134.87,264.695 130.203,261.195 126.5,256.5C 140.471,260.291 152.638,257.291 163,247.5C 171.914,234.63 172.747,221.297 165.5,207.5 Z"/></g>
<g><path style="opacity:1" fill="#7a8c99" d="M 218.5,223.5 C 223.844,223.334 229.177,223.501 234.5,224C 235,224.5 235.5,225 236,225.5C 236.667,232.833 236.667,240.167 236,247.5C 235.292,248.381 234.458,249.047 233.5,249.5C 228.786,249.827 224.12,249.493 219.5,248.5C 220.633,240.883 220.8,233.216 220,225.5C 219.283,224.956 218.783,224.289 218.5,223.5 Z"/></g>
<g><path style="opacity:1" fill="#7a8c98" d="M 216.5,250.5 C 214.38,258.026 211.38,265.193 207.5,272C 210.618,276.121 214.118,279.954 218,283.5C 219.187,285.044 219.52,286.711 219,288.5C 214.167,293.333 209.333,298.167 204.5,303C 199.93,303.629 196.596,301.796 194.5,297.5C 197.678,294.155 200.678,290.655 203.5,287C 203.138,285.775 202.638,284.609 202,283.5C 198.118,279.954 194.618,276.121 191.5,272C 195.295,265.628 198.128,258.795 200,251.5C 205.407,250.527 210.907,250.193 216.5,250.5 Z"/></g>
<g><path style="opacity:1" fill="#7a8c98" d="M 177.5,296.5 C 173.843,298.385 170.01,300.052 166,301.5C 165.667,307.167 165.333,312.833 165,318.5C 164.5,319 164,319.5 163.5,320C 159.179,320.499 154.846,320.666 150.5,320.5C 150.783,319.711 151.283,319.044 152,318.5C 152.333,310.5 152.667,302.5 153,294.5C 158.661,291.553 164.494,288.886 170.5,286.5C 172.029,286.529 173.196,287.196 174,288.5C 175.076,291.237 176.243,293.904 177.5,296.5 Z"/></g>
<g><path style="opacity:0.993" fill="#d8e6eb" d="M -0.5,359.5 C 10.1667,359.5 20.8333,359.5 31.5,359.5C 173.833,359.5 316.167,359.5 458.5,359.5C 465.5,359.5 472.5,359.5 479.5,359.5C 483.167,359.5 486.833,359.5 490.5,359.5C 490.941,376.223 490.441,392.89 489,409.5C 484.515,418.648 477.348,424.315 467.5,426.5C 413.664,426.168 359.997,426.501 306.5,427.5C 272.649,425.171 238.649,424.838 204.5,426.5C 143.499,426.667 82.4991,426.5 21.5,426C 10.934,423.595 3.60062,417.428 -0.5,407.5C -0.5,391.5 -0.5,375.5 -0.5,359.5 Z"/></g>
<g><path style="opacity:1" fill="#c5d3dd" d="M 490.5,359.5 C 497.5,359.5 504.5,359.5 511.5,359.5C 511.5,375.5 511.5,391.5 511.5,407.5C 508.105,415.397 502.439,421.23 494.5,425C 485.559,426.346 476.559,426.846 467.5,426.5C 477.348,424.315 484.515,418.648 489,409.5C 490.441,392.89 490.941,376.223 490.5,359.5 Z"/></g>
<g><path style="opacity:1" fill="#b6c4cf" d="M 234.5,385.5 C 248.504,385.333 262.504,385.5 276.5,386C 280.212,388.513 281.378,392.013 280,396.5C 278.681,398.487 276.848,399.654 274.5,400C 261.5,400.667 248.5,400.667 235.5,400C 230.311,397.087 229.144,392.92 232,387.5C 232.995,386.934 233.828,386.267 234.5,385.5 Z"/></g>
<g><path style="opacity:1" fill="#b7c5cf" d="M 306.5,427.5 C 306.5,433.167 306.5,438.833 306.5,444.5C 272.5,444.5 238.5,444.5 204.5,444.5C 204.5,438.5 204.5,432.5 204.5,426.5C 238.649,424.838 272.649,425.171 306.5,427.5 Z"/></g>
<g><path style="opacity:0.994" fill="#c4d2dc" d="M 204.5,444.5 C 238.5,444.5 272.5,444.5 306.5,444.5C 307.304,461.686 309.304,478.686 312.5,495.5C 274.5,496.833 236.5,496.833 198.5,495.5C 201.616,478.676 203.616,461.676 204.5,444.5 Z"/></g>
<g><path style="opacity:0.985" fill="#b6c4cf" d="M 198.5,495.5 C 236.5,496.833 274.5,496.833 312.5,495.5C 324.838,495.333 337.171,495.5 349.5,496C 354.069,498.541 355.569,502.375 354,507.5C 352.968,509.027 351.801,510.36 350.5,511.5C 287.167,511.5 223.833,511.5 160.5,511.5C 156.296,507.939 155.463,503.605 158,498.5C 158.903,497.299 160.069,496.465 161.5,496C 173.829,495.5 186.162,495.333 198.5,495.5 Z"/></g>
</svg>
